<mxfile host="app.diagrams.net" modified="2024-07-14T12:17:19.900Z" agent="Mozilla/5.0 (Windows NT 10.0; Win64; x64) AppleWebKit/537.36 (KHTML, like Gecko) Chrome/126.0.0.0 Safari/537.36" etag="leVmcTcNlSsN6cNJMuTe" version="24.6.4" type="github">
  <diagram name="Page-1" id="O-2GQO0PXnm37HvwSnrw">
    <mxGraphModel dx="1037" dy="570" grid="1" gridSize="10" guides="1" tooltips="1" connect="1" arrows="1" fold="1" page="1" pageScale="1" pageWidth="850" pageHeight="1100" math="0" shadow="0">
      <root>
        <mxCell id="0" />
        <mxCell id="1" parent="0" />
        <mxCell id="rhE3FwrFqvZkOa-msCw4-1" value="1" style="rounded=0;whiteSpace=wrap;html=1;fillColor=none;" vertex="1" parent="1">
          <mxGeometry x="80" y="40" width="40" height="20" as="geometry" />
        </mxCell>
        <mxCell id="rhE3FwrFqvZkOa-msCw4-2" value="2" style="rounded=0;whiteSpace=wrap;html=1;fillColor=none;" vertex="1" parent="1">
          <mxGeometry x="140" y="40" width="40" height="20" as="geometry" />
        </mxCell>
        <mxCell id="rhE3FwrFqvZkOa-msCw4-3" value="3" style="rounded=0;whiteSpace=wrap;html=1;fillColor=none;" vertex="1" parent="1">
          <mxGeometry x="200" y="40" width="40" height="20" as="geometry" />
        </mxCell>
        <mxCell id="rhE3FwrFqvZkOa-msCw4-4" value="P" style="rounded=0;whiteSpace=wrap;html=1;fillColor=none;" vertex="1" parent="1">
          <mxGeometry x="260" y="40" width="40" height="20" as="geometry" />
        </mxCell>
        <mxCell id="rhE3FwrFqvZkOa-msCw4-5" value="4" style="rounded=0;whiteSpace=wrap;html=1;fillColor=none;" vertex="1" parent="1">
          <mxGeometry x="80" y="80" width="40" height="20" as="geometry" />
        </mxCell>
        <mxCell id="rhE3FwrFqvZkOa-msCw4-6" value="5" style="rounded=0;whiteSpace=wrap;html=1;fillColor=none;" vertex="1" parent="1">
          <mxGeometry x="140" y="80" width="40" height="20" as="geometry" />
        </mxCell>
        <mxCell id="rhE3FwrFqvZkOa-msCw4-7" value="P" style="rounded=0;whiteSpace=wrap;html=1;fillColor=none;" vertex="1" parent="1">
          <mxGeometry x="200" y="80" width="40" height="20" as="geometry" />
        </mxCell>
        <mxCell id="rhE3FwrFqvZkOa-msCw4-8" value="6" style="rounded=0;whiteSpace=wrap;html=1;fillColor=none;" vertex="1" parent="1">
          <mxGeometry x="260" y="80" width="40" height="20" as="geometry" />
        </mxCell>
        <mxCell id="rhE3FwrFqvZkOa-msCw4-9" value="7" style="rounded=0;whiteSpace=wrap;html=1;fillColor=none;" vertex="1" parent="1">
          <mxGeometry x="80" y="120" width="40" height="20" as="geometry" />
        </mxCell>
        <mxCell id="rhE3FwrFqvZkOa-msCw4-10" value="P" style="rounded=0;whiteSpace=wrap;html=1;fillColor=none;" vertex="1" parent="1">
          <mxGeometry x="140" y="120" width="40" height="20" as="geometry" />
        </mxCell>
        <mxCell id="rhE3FwrFqvZkOa-msCw4-11" value="8" style="rounded=0;whiteSpace=wrap;html=1;fillColor=none;" vertex="1" parent="1">
          <mxGeometry x="200" y="120" width="40" height="20" as="geometry" />
        </mxCell>
        <mxCell id="rhE3FwrFqvZkOa-msCw4-12" value="9" style="rounded=0;whiteSpace=wrap;html=1;fillColor=none;" vertex="1" parent="1">
          <mxGeometry x="260" y="120" width="40" height="20" as="geometry" />
        </mxCell>
        <mxCell id="rhE3FwrFqvZkOa-msCw4-13" value="1&#39;" style="rounded=0;whiteSpace=wrap;html=1;fillColor=#999999;fillStyle=hatch;" vertex="1" parent="1">
          <mxGeometry x="80" y="180" width="40" height="20" as="geometry" />
        </mxCell>
        <mxCell id="rhE3FwrFqvZkOa-msCw4-14" value="2&#39;" style="rounded=0;whiteSpace=wrap;html=1;fillColor=#999999;fillStyle=hatch;" vertex="1" parent="1">
          <mxGeometry x="140" y="180" width="40" height="20" as="geometry" />
        </mxCell>
        <mxCell id="rhE3FwrFqvZkOa-msCw4-15" value="3&#39;" style="rounded=0;whiteSpace=wrap;html=1;fillColor=#999999;fillStyle=hatch;" vertex="1" parent="1">
          <mxGeometry x="200" y="180" width="40" height="20" as="geometry" />
        </mxCell>
        <mxCell id="rhE3FwrFqvZkOa-msCw4-16" value="NULL" style="rounded=0;whiteSpace=wrap;html=1;fillColor=#999999;fillStyle=hatch;" vertex="1" parent="1">
          <mxGeometry x="260" y="180" width="40" height="20" as="geometry" />
        </mxCell>
        <mxCell id="rhE3FwrFqvZkOa-msCw4-21" value="&lt;b&gt;&lt;font style=&quot;font-size: 18px;&quot;&gt;...&lt;/font&gt;&lt;/b&gt;" style="rounded=0;whiteSpace=wrap;html=1;rotation=90;fillColor=none;strokeColor=none;" vertex="1" parent="1">
          <mxGeometry x="170" y="150" width="40" height="20" as="geometry" />
        </mxCell>
        <mxCell id="rhE3FwrFqvZkOa-msCw4-22" value="&lt;b&gt;&lt;font style=&quot;font-size: 18px;&quot;&gt;...&lt;/font&gt;&lt;/b&gt;" style="rounded=0;whiteSpace=wrap;html=1;rotation=90;fillColor=none;strokeColor=none;" vertex="1" parent="1">
          <mxGeometry x="170" y="210" width="40" height="20" as="geometry" />
        </mxCell>
        <mxCell id="rhE3FwrFqvZkOa-msCw4-23" value="1&#39;" style="rounded=0;whiteSpace=wrap;html=1;fillColor=#999999;fillStyle=hatch;" vertex="1" parent="1">
          <mxGeometry x="140" y="240" width="40" height="20" as="geometry" />
        </mxCell>
        <mxCell id="rhE3FwrFqvZkOa-msCw4-24" value="2&#39;" style="rounded=0;whiteSpace=wrap;html=1;fillColor=#999999;fillStyle=hatch;" vertex="1" parent="1">
          <mxGeometry x="200" y="240" width="40" height="20" as="geometry" />
        </mxCell>
        <mxCell id="rhE3FwrFqvZkOa-msCw4-25" value="3&#39;" style="rounded=0;whiteSpace=wrap;html=1;fillColor=#999999;fillStyle=hatch;" vertex="1" parent="1">
          <mxGeometry x="260" y="240" width="40" height="20" as="geometry" />
        </mxCell>
        <mxCell id="rhE3FwrFqvZkOa-msCw4-26" value="NULL" style="rounded=0;whiteSpace=wrap;html=1;fillColor=#999999;fillStyle=hatch;" vertex="1" parent="1">
          <mxGeometry x="80" y="240" width="40" height="20" as="geometry" />
        </mxCell>
        <mxCell id="rhE3FwrFqvZkOa-msCw4-27" value="R" style="rounded=0;whiteSpace=wrap;html=1;fillColor=none;" vertex="1" parent="1">
          <mxGeometry x="20" y="40" width="40" height="20" as="geometry" />
        </mxCell>
        <mxCell id="rhE3FwrFqvZkOa-msCw4-28" value="R" style="rounded=0;whiteSpace=wrap;html=1;fillColor=none;" vertex="1" parent="1">
          <mxGeometry x="20" y="80" width="40" height="20" as="geometry" />
        </mxCell>
        <mxCell id="rhE3FwrFqvZkOa-msCw4-29" value="R" style="rounded=0;whiteSpace=wrap;html=1;fillColor=none;" vertex="1" parent="1">
          <mxGeometry x="20" y="120" width="40" height="20" as="geometry" />
        </mxCell>
        <mxCell id="rhE3FwrFqvZkOa-msCw4-30" value="S" style="rounded=0;whiteSpace=wrap;html=1;fillColor=none;" vertex="1" parent="1">
          <mxGeometry x="20" y="180" width="40" height="20" as="geometry" />
        </mxCell>
        <mxCell id="rhE3FwrFqvZkOa-msCw4-31" value="S" style="rounded=0;whiteSpace=wrap;html=1;fillColor=none;" vertex="1" parent="1">
          <mxGeometry x="20" y="240" width="40" height="20" as="geometry" />
        </mxCell>
        <mxCell id="rhE3FwrFqvZkOa-msCw4-32" value="Metadata" style="rounded=0;whiteSpace=wrap;html=1;fontSize=12;fillColor=none;strokeColor=none;" vertex="1" parent="1">
          <mxGeometry x="10" y="10" width="60" height="20" as="geometry" />
        </mxCell>
        <mxCell id="rhE3FwrFqvZkOa-msCw4-33" value="Data" style="rounded=0;whiteSpace=wrap;html=1;fontSize=12;fillColor=none;strokeColor=none;" vertex="1" parent="1">
          <mxGeometry x="160" y="10" width="60" height="20" as="geometry" />
        </mxCell>
        <mxCell id="rhE3FwrFqvZkOa-msCw4-34" value="" style="endArrow=none;dashed=1;html=1;rounded=0;entryX=1;entryY=0;entryDx=0;entryDy=0;" edge="1" parent="1" target="rhE3FwrFqvZkOa-msCw4-32">
          <mxGeometry width="50" height="50" relative="1" as="geometry">
            <mxPoint x="70" y="310" as="sourcePoint" />
            <mxPoint x="450" y="10" as="targetPoint" />
          </mxGeometry>
        </mxCell>
        <mxCell id="rhE3FwrFqvZkOa-msCw4-35" value="" style="shape=flexArrow;endArrow=classic;html=1;rounded=0;" edge="1" parent="1">
          <mxGeometry width="50" height="50" relative="1" as="geometry">
            <mxPoint x="310" y="159.5" as="sourcePoint" />
            <mxPoint x="350" y="160" as="targetPoint" />
          </mxGeometry>
        </mxCell>
        <mxCell id="rhE3FwrFqvZkOa-msCw4-36" value="1" style="rounded=0;whiteSpace=wrap;html=1;fillColor=none;" vertex="1" parent="1">
          <mxGeometry x="430" y="40" width="40" height="20" as="geometry" />
        </mxCell>
        <mxCell id="rhE3FwrFqvZkOa-msCw4-37" value="2" style="rounded=0;whiteSpace=wrap;html=1;fillColor=none;" vertex="1" parent="1">
          <mxGeometry x="490" y="40" width="40" height="20" as="geometry" />
        </mxCell>
        <mxCell id="rhE3FwrFqvZkOa-msCw4-38" value="3" style="rounded=0;whiteSpace=wrap;html=1;fillColor=none;" vertex="1" parent="1">
          <mxGeometry x="550" y="40" width="40" height="20" as="geometry" />
        </mxCell>
        <mxCell id="rhE3FwrFqvZkOa-msCw4-39" value="P" style="rounded=0;whiteSpace=wrap;html=1;fillColor=none;" vertex="1" parent="1">
          <mxGeometry x="610" y="40" width="40" height="20" as="geometry" />
        </mxCell>
        <mxCell id="rhE3FwrFqvZkOa-msCw4-40" value="4" style="rounded=0;whiteSpace=wrap;html=1;fillColor=none;" vertex="1" parent="1">
          <mxGeometry x="430" y="80" width="40" height="20" as="geometry" />
        </mxCell>
        <mxCell id="rhE3FwrFqvZkOa-msCw4-41" value="5" style="rounded=0;whiteSpace=wrap;html=1;fillColor=none;" vertex="1" parent="1">
          <mxGeometry x="490" y="80" width="40" height="20" as="geometry" />
        </mxCell>
        <mxCell id="rhE3FwrFqvZkOa-msCw4-42" value="P" style="rounded=0;whiteSpace=wrap;html=1;fillColor=none;" vertex="1" parent="1">
          <mxGeometry x="550" y="80" width="40" height="20" as="geometry" />
        </mxCell>
        <mxCell id="rhE3FwrFqvZkOa-msCw4-43" value="6" style="rounded=0;whiteSpace=wrap;html=1;fillColor=none;" vertex="1" parent="1">
          <mxGeometry x="610" y="80" width="40" height="20" as="geometry" />
        </mxCell>
        <mxCell id="rhE3FwrFqvZkOa-msCw4-44" value="7" style="rounded=0;whiteSpace=wrap;html=1;fillColor=none;" vertex="1" parent="1">
          <mxGeometry x="430" y="120" width="40" height="20" as="geometry" />
        </mxCell>
        <mxCell id="rhE3FwrFqvZkOa-msCw4-45" value="P" style="rounded=0;whiteSpace=wrap;html=1;fillColor=none;" vertex="1" parent="1">
          <mxGeometry x="490" y="120" width="40" height="20" as="geometry" />
        </mxCell>
        <mxCell id="rhE3FwrFqvZkOa-msCw4-46" value="8" style="rounded=0;whiteSpace=wrap;html=1;fillColor=none;" vertex="1" parent="1">
          <mxGeometry x="550" y="120" width="40" height="20" as="geometry" />
        </mxCell>
        <mxCell id="rhE3FwrFqvZkOa-msCw4-47" value="9" style="rounded=0;whiteSpace=wrap;html=1;fillColor=none;" vertex="1" parent="1">
          <mxGeometry x="610" y="120" width="40" height="20" as="geometry" />
        </mxCell>
        <mxCell id="rhE3FwrFqvZkOa-msCw4-48" value="1&#39;" style="rounded=0;whiteSpace=wrap;html=1;fillColor=none;fillStyle=hatch;" vertex="1" parent="1">
          <mxGeometry x="430" y="180" width="40" height="20" as="geometry" />
        </mxCell>
        <mxCell id="rhE3FwrFqvZkOa-msCw4-49" value="2&#39;" style="rounded=0;whiteSpace=wrap;html=1;fillColor=none;fillStyle=hatch;" vertex="1" parent="1">
          <mxGeometry x="490" y="180" width="40" height="20" as="geometry" />
        </mxCell>
        <mxCell id="rhE3FwrFqvZkOa-msCw4-50" value="3&#39;" style="rounded=0;whiteSpace=wrap;html=1;fillColor=none;fillStyle=hatch;" vertex="1" parent="1">
          <mxGeometry x="550" y="180" width="40" height="20" as="geometry" />
        </mxCell>
        <mxCell id="rhE3FwrFqvZkOa-msCw4-51" value="P&#39;" style="rounded=0;whiteSpace=wrap;html=1;fillColor=none;fillStyle=hatch;" vertex="1" parent="1">
          <mxGeometry x="610" y="180" width="40" height="20" as="geometry" />
        </mxCell>
        <mxCell id="rhE3FwrFqvZkOa-msCw4-52" value="&lt;b&gt;&lt;font style=&quot;font-size: 18px;&quot;&gt;...&lt;/font&gt;&lt;/b&gt;" style="rounded=0;whiteSpace=wrap;html=1;rotation=90;fillColor=none;strokeColor=none;" vertex="1" parent="1">
          <mxGeometry x="520" y="150" width="40" height="20" as="geometry" />
        </mxCell>
        <mxCell id="rhE3FwrFqvZkOa-msCw4-53" value="&lt;b&gt;&lt;font style=&quot;font-size: 18px;&quot;&gt;...&lt;/font&gt;&lt;/b&gt;" style="rounded=0;whiteSpace=wrap;html=1;rotation=90;fillColor=none;strokeColor=none;" vertex="1" parent="1">
          <mxGeometry x="520" y="210" width="40" height="20" as="geometry" />
        </mxCell>
        <mxCell id="rhE3FwrFqvZkOa-msCw4-54" value="NULL" style="rounded=0;whiteSpace=wrap;html=1;fillColor=none;fillStyle=hatch;" vertex="1" parent="1">
          <mxGeometry x="490" y="240" width="40" height="20" as="geometry" />
        </mxCell>
        <mxCell id="rhE3FwrFqvZkOa-msCw4-55" value="NULL" style="rounded=0;whiteSpace=wrap;html=1;fillColor=none;fillStyle=hatch;" vertex="1" parent="1">
          <mxGeometry x="550" y="240" width="40" height="20" as="geometry" />
        </mxCell>
        <mxCell id="rhE3FwrFqvZkOa-msCw4-56" value="NULL" style="rounded=0;whiteSpace=wrap;html=1;fillColor=none;fillStyle=hatch;" vertex="1" parent="1">
          <mxGeometry x="610" y="240" width="40" height="20" as="geometry" />
        </mxCell>
        <mxCell id="rhE3FwrFqvZkOa-msCw4-57" value="NULL" style="rounded=0;whiteSpace=wrap;html=1;fillColor=none;fillStyle=hatch;" vertex="1" parent="1">
          <mxGeometry x="430" y="240" width="40" height="20" as="geometry" />
        </mxCell>
        <mxCell id="rhE3FwrFqvZkOa-msCw4-58" value="R" style="rounded=0;whiteSpace=wrap;html=1;fillColor=none;" vertex="1" parent="1">
          <mxGeometry x="370" y="40" width="40" height="20" as="geometry" />
        </mxCell>
        <mxCell id="rhE3FwrFqvZkOa-msCw4-59" value="R" style="rounded=0;whiteSpace=wrap;html=1;fillColor=none;" vertex="1" parent="1">
          <mxGeometry x="370" y="80" width="40" height="20" as="geometry" />
        </mxCell>
        <mxCell id="rhE3FwrFqvZkOa-msCw4-60" value="R" style="rounded=0;whiteSpace=wrap;html=1;fillColor=none;" vertex="1" parent="1">
          <mxGeometry x="370" y="120" width="40" height="20" as="geometry" />
        </mxCell>
        <mxCell id="rhE3FwrFqvZkOa-msCw4-61" value="R" style="rounded=0;whiteSpace=wrap;html=1;fillColor=none;" vertex="1" parent="1">
          <mxGeometry x="370" y="180" width="40" height="20" as="geometry" />
        </mxCell>
        <mxCell id="rhE3FwrFqvZkOa-msCw4-62" value="" style="rounded=0;whiteSpace=wrap;html=1;fillColor=none;" vertex="1" parent="1">
          <mxGeometry x="370" y="240" width="40" height="20" as="geometry" />
        </mxCell>
        <mxCell id="rhE3FwrFqvZkOa-msCw4-63" value="Metadata" style="rounded=0;whiteSpace=wrap;html=1;fontSize=12;fillColor=none;strokeColor=none;" vertex="1" parent="1">
          <mxGeometry x="360" y="10" width="60" height="20" as="geometry" />
        </mxCell>
        <mxCell id="rhE3FwrFqvZkOa-msCw4-64" value="Data" style="rounded=0;whiteSpace=wrap;html=1;fontSize=12;fillColor=none;strokeColor=none;" vertex="1" parent="1">
          <mxGeometry x="510" y="10" width="60" height="20" as="geometry" />
        </mxCell>
        <mxCell id="rhE3FwrFqvZkOa-msCw4-65" value="" style="endArrow=none;dashed=1;html=1;rounded=0;entryX=1;entryY=0;entryDx=0;entryDy=0;" edge="1" parent="1" target="rhE3FwrFqvZkOa-msCw4-63">
          <mxGeometry width="50" height="50" relative="1" as="geometry">
            <mxPoint x="420" y="310" as="sourcePoint" />
            <mxPoint x="800" y="10" as="targetPoint" />
          </mxGeometry>
        </mxCell>
        <mxCell id="rhE3FwrFqvZkOa-msCw4-66" value="" style="rounded=1;whiteSpace=wrap;html=1;fillColor=none;dashed=1;dashPattern=8 8;" vertex="1" parent="1">
          <mxGeometry x="425" y="170" width="230" height="40" as="geometry" />
        </mxCell>
        <mxCell id="rhE3FwrFqvZkOa-msCw4-67" value="&lt;font style=&quot;&quot; color=&quot;#ffffff&quot;&gt;1&lt;/font&gt;" style="ellipse;whiteSpace=wrap;html=1;aspect=fixed;fillColor=#000000;" vertex="1" parent="1">
          <mxGeometry x="547" y="155" width="10" height="10" as="geometry" />
        </mxCell>
        <mxCell id="rhE3FwrFqvZkOa-msCw4-68" value="Convert NULL to parity" style="rounded=0;whiteSpace=wrap;html=1;fillColor=none;strokeColor=none;" vertex="1" parent="1">
          <mxGeometry x="560" y="150" width="125" height="20" as="geometry" />
        </mxCell>
        <mxCell id="rhE3FwrFqvZkOa-msCw4-69" value="&lt;font style=&quot;&quot; color=&quot;#ffffff&quot;&gt;2&lt;/font&gt;" style="ellipse;whiteSpace=wrap;html=1;aspect=fixed;fillColor=#000000;" vertex="1" parent="1">
          <mxGeometry x="350" y="215" width="10" height="10" as="geometry" />
        </mxCell>
        <mxCell id="rhE3FwrFqvZkOa-msCw4-70" value="Change to RAID part" style="rounded=0;whiteSpace=wrap;html=1;fillColor=none;strokeColor=none;" vertex="1" parent="1">
          <mxGeometry x="360" y="205" width="60" height="30" as="geometry" />
        </mxCell>
        <mxCell id="rhE3FwrFqvZkOa-msCw4-72" value="" style="rounded=1;whiteSpace=wrap;html=1;fillColor=none;dashed=1;dashPattern=8 8;" vertex="1" parent="1">
          <mxGeometry x="425" y="230" width="230" height="40" as="geometry" />
        </mxCell>
        <mxCell id="rhE3FwrFqvZkOa-msCw4-73" value="&lt;font style=&quot;&quot; color=&quot;#ffffff&quot;&gt;3&lt;/font&gt;" style="ellipse;whiteSpace=wrap;html=1;aspect=fixed;fillColor=#000000;" vertex="1" parent="1">
          <mxGeometry x="547" y="275" width="10" height="10" as="geometry" />
        </mxCell>
        <mxCell id="rhE3FwrFqvZkOa-msCw4-74" value="Remove replica" style="rounded=0;whiteSpace=wrap;html=1;fillColor=none;strokeColor=none;" vertex="1" parent="1">
          <mxGeometry x="560" y="270" width="90" height="20" as="geometry" />
        </mxCell>
      </root>
    </mxGraphModel>
  </diagram>
</mxfile>
